<svg width="100" height="100" viewBox="0 0 100 100" fill="none" xmlns="http://www.w3.org/2000/svg">
<path d="M100 50V19.998V0H79.997H50V19.998H79.997V50H100Z" fill="#006D6B"/>
<path d="M79.997 50C79.997 66.5709 66.5659 79.997 50 79.997C33.434 79.997 19.998 66.5659 19.998 50C19.998 33.434 33.4291 19.998 50 19.998C66.5709 19.998 79.997 33.4291 79.997 50ZM99.995 50C99.9999 22.3851 77.6148 0 50 0C22.3851 0 0 22.3851 0 50C0 77.6148 22.3851 99.9999 50 99.9999C77.6148 99.9999 99.9999 77.6148 99.9999 50" fill="#2ADAA5"/>
</svg>
